<mxfile host="app.diagrams.net" modified="2024-04-26T04:59:33.957Z" agent="Mozilla/5.0 (Windows NT 10.0; Win64; x64) AppleWebKit/537.36 (KHTML, like Gecko) Chrome/124.0.0.0 Safari/537.36" version="24.3.0" etag="mzSBdGe5nQpIKA8QmZ9g" type="github">
  <diagram name="Page-1" id="bU9Xa2V7jrHWwULqEVDS">
    <mxGraphModel>
      <root>
        <mxCell id="0" />
        <mxCell id="1" parent="0" />
      </root>
    </mxGraphModel>
  </diagram>
</mxfile>
